# xmcd
#
# Track frame offsets: 
#        150
#        25199
#        47666
#        67706
#        96426
#        118663
#        141354
#        166602
#        203491
#        234846
#        261885
#        294477
#
# Disc length: 4177 seconds
#
# Revision: 0
# Processed by: cddbd v1.5.1PL0 Copyright (c) Steve Scherf et al.
# Submitted via: ExactAudioCopy v0.95a5
#
DISCID=9c104f0c
DTITLE=Mystery Train - Mystery Train - Live at Memphis Smoke
DYEAR=1997
DGENRE=Blues
TTITLE0=T-Bone Shuffle
TTITLE1=My Wife Don't Cook
TTITLE2=Let it Rock
TTITLE3=Blow Wind Blow
TTITLE4=Six Digit Man
TTITLE5=Checking On My Baby
TTITLE6=Back On My Feet Again
TTITLE7=Let's Make It
TTITLE8=Run You Off The Hill
TTITLE9=Going Back To Memphis
TTITLE10=Temperatures Risin'
TTITLE11=Too Close For Comfort
EXTD=
EXTT0=
EXTT1=
EXTT2=
EXTT3=
EXTT4=
EXTT5=
EXTT6=
EXTT7=
EXTT8=
EXTT9=
EXTT10=
EXTT11=
PLAYORDER=
